<svg xmlns="http://www.w3.org/2000/svg" viewBox="0 0 64 64" fill="none">
  <path
    d="M33.5 14.5c-5.6 0-10.2 4.4-10.2 9.8 0 3.8 2 6.9 5.3 8.7"
    stroke="currentColor"
    stroke-width="2.6"
    stroke-linecap="round"
    stroke-linejoin="round"
  />
  <path
    d="M33.5 14.5c5.6 0 10.2 4.4 10.2 9.8 0 4.1-2.4 7.4-6.2 9.1"
    stroke="currentColor"
    stroke-width="2.6"
    stroke-linecap="round"
    stroke-linejoin="round"
  />
  <path
    d="M29.3 33.3c.9.7 2.4 1.3 4.2 1.3 1.8 0 3.3-.6 4.2-1.3"
    stroke="currentColor"
    stroke-width="2.4"
    stroke-linecap="round"
    stroke-linejoin="round"
  />
  <path
    d="M21.5 47c5.5 2.7 15.5 2.7 21 0"
    stroke="currentColor"
    stroke-width="2.6"
    stroke-linecap="round"
    stroke-linejoin="round"
  />
  <path
    d="M21.5 47c-1.6-.8-2.6-2.3-2.6-4.1 0-2.8 2.6-5.2 6.7-6.2"
    stroke="currentColor"
    stroke-width="2.6"
    stroke-linecap="round"
    stroke-linejoin="round"
  />
  <path
    d="M42.5 47c1.6-.8 2.6-2.3 2.6-4.1 0-2.8-2.6-5.2-6.7-6.2"
    stroke="currentColor"
    stroke-width="2.6"
    stroke-linecap="round"
    stroke-linejoin="round"
  />
  <path
    d="M45.5 17.5c2.4 1 4.2 2.8 5.1 5.3"
    stroke="currentColor"
    stroke-width="2.2"
    stroke-linecap="round"
    stroke-linejoin="round"
    opacity="0.9"
  />
  <path
    d="M16.5 21.5c.9-2.2 2.5-3.8 4.6-4.8"
    stroke="currentColor"
    stroke-width="2.2"
    stroke-linecap="round"
    stroke-linejoin="round"
    opacity="0.9"
  />
  <path
    d="M50.2 36.6c1.2.1 2.3.5 3.2 1.2"
    stroke="currentColor"
    stroke-width="2.2"
    stroke-linecap="round"
    stroke-linejoin="round"
    opacity="0.85"
  />
  <path
    d="M13.7 36.9c-1.1.2-2.1.6-2.9 1.3"
    stroke="currentColor"
    stroke-width="2.2"
    stroke-linecap="round"
    stroke-linejoin="round"
    opacity="0.85"
  />
</svg>
