<svg xmlns="http://www.w3.org/2000/svg" viewBox="0 0 64 64" fill="none">
  <path
    d="M32 10.8c7.9 0 14.3 6.4 14.3 14.3S39.9 39.4 32 39.4 17.7 33 17.7 25.1 24.1 10.8 32 10.8Z"
    stroke="currentColor"
    stroke-width="2.6"
    stroke-linecap="round"
    stroke-linejoin="round"
  />
  <path
    d="M24.5 44.2h15"
    stroke="currentColor"
    stroke-width="2.6"
    stroke-linecap="round"
    stroke-linejoin="round"
  />
  <path
    d="M26.6 50.6h10.8"
    stroke="currentColor"
    stroke-width="2.6"
    stroke-linecap="round"
    stroke-linejoin="round"
  />
  <path
    d="M26.2 24.9l3.9 4.1 7.8-8.4"
    stroke="currentColor"
    stroke-width="2.8"
    stroke-linecap="round"
    stroke-linejoin="round"
  />
  <path
    d="M46.8 38.8c.9 0 1.8.4 2.4 1.1l2.1 2.3c.6.7.9 1.6.8 2.6l-.3 3.1c-.1 1-.6 1.9-1.4 2.4l-2.6 1.8c-.8.5-1.8.7-2.7.4l-3-1c-.9-.3-1.7-1-2-1.9l-1.2-2.9c-.4-.9-.3-1.9.2-2.7l1.5-2.7c.5-.8 1.3-1.4 2.3-1.5l3.1-.4Z"
    stroke="currentColor"
    stroke-width="2.4"
    stroke-linecap="round"
    stroke-linejoin="round"
    opacity="0.95"
  />
</svg>
