<svg xmlns="http://www.w3.org/2000/svg" viewBox="0 0 64 64" fill="none">
  <path
    d="M12 20.5c0-2.6 2.1-4.7 4.7-4.7h30.6c2.6 0 4.7 2.1 4.7 4.7v19.2c0 2.6-2.1 4.7-4.7 4.7H16.7c-2.6 0-4.7-2.1-4.7-4.7V20.5Z"
    stroke="currentColor"
    stroke-width="2.6"
    stroke-linecap="round"
    stroke-linejoin="round"
  />
  <path
    d="M18 48.5h28"
    stroke="currentColor"
    stroke-width="2.6"
    stroke-linecap="round"
    stroke-linejoin="round"
  />
  <path
    d="M22 24.5h20"
    stroke="currentColor"
    stroke-width="2.2"
    stroke-linecap="round"
    stroke-linejoin="round"
    opacity="0.95"
  />
  <path
    d="M22 30.5h14"
    stroke="currentColor"
    stroke-width="2.2"
    stroke-linecap="round"
    stroke-linejoin="round"
    opacity="0.9"
  />
  <path
    d="M40.5 40.5v10.2c0 .9.7 1.6 1.6 1.6h8.8c.9 0 1.6-.7 1.6-1.6V43.6c0-.5-.2-.9-.6-1.2l-3.1-2.5c-.3-.2-.7-.4-1.1-.4h-5.6c-.9 0-1.6.7-1.6 1.6Z"
    stroke="currentColor"
    stroke-width="2.4"
    stroke-linecap="round"
    stroke-linejoin="round"
  />
  <path
    d="M46.5 43.2v5.4"
    stroke="currentColor"
    stroke-width="2.2"
    stroke-linecap="round"
    stroke-linejoin="round"
  />
  <path
    d="M43.8 46h5.4"
    stroke="currentColor"
    stroke-width="2.2"
    stroke-linecap="round"
    stroke-linejoin="round"
  />
</svg>
